<?xml version="1.0" encoding="utf-8"?>
<!-- Generator: Adobe Illustrator 22.0.1, SVG Export Plug-In . SVG Version: 6.00 Build 0)  -->
<svg version="1.1" id="Camada_1" xmlns="http://www.w3.org/2000/svg" xmlns:xlink="http://www.w3.org/1999/xlink" x="0px" y="0px"
	 width="297.4px" height="255.5px" viewBox="0 0 297.4 255.5" style="enable-background:new 0 0 297.4 255.5;" xml:space="preserve"
	>
<style type="text/css">
	.st0{fill:#FFFFFF;}
	.st1{fill:#00678D;}
	.st2{fill:#0078AE;}
	.st3{fill:#008DCC;}
	.st4{fill:#E44E41;}
	.st5{fill:#C6443D;}
	.st6{fill:#EDE748;}
	.st7{fill:#C74F43;}
	.st8{fill:#AB453F;}
	.st9{fill:#E5E5E4;}
</style>
<g>
	<g id="XMLID_14205_">
		<path class="st0" d="M75.2,209.7v5.8h-3.8v-16.7h5.9c4.2,0,6.3,1.8,6.3,5.3c0,1.7-0.6,3-1.8,4.1s-2.8,1.6-4.8,1.6h-1.8V209.7z
			 M75.2,201.7v5.2h1.5c2,0,3-0.9,3-2.6c0-1.7-1-2.6-3-2.6L75.2,201.7L75.2,201.7z"/>
		<path class="st0" d="M89.4,215.5h-3.7v-17.7h3.7V215.5z"/>
		<path class="st0" d="M102.4,215.5H99v-1.7l0,0c-0.8,1.3-2,2-3.6,2c-1.2,0-2.1-0.3-2.7-1s-1-1.5-1-2.6c0-2.3,1.4-3.6,4.1-4l3.2-0.4
			c0-1.3-0.7-2-2.1-2s-2.8,0.4-4.1,1.3v-2.8c0.5-0.3,1.2-0.5,2.1-0.7s1.7-0.3,2.4-0.3c3.4,0,5.1,1.7,5.1,5.1V215.5z M99,210.7v-0.8
			l-2.2,0.3c-1.2,0.2-1.8,0.7-1.8,1.6c0,0.4,0.1,0.8,0.4,1c0.3,0.3,0.7,0.4,1.2,0.4c0.7,0,1.3-0.2,1.7-0.7
			C98.8,212,99,211.4,99,210.7z"/>
		<path class="st0" d="M112.6,215.4c-0.5,0.3-1.4,0.4-2.5,0.4c-2.6,0-3.9-1.3-3.9-4v-5.5h-1.9v-2.7h1.9V201l3.7-1v3.6h2.7v2.7h-2.7
			v4.8c0,1.2,0.5,1.9,1.5,1.9c0.4,0,0.8-0.1,1.2-0.3C112.6,212.7,112.6,215.4,112.6,215.4z"/>
		<path class="st0" d="M124.6,215.5h-3.5v-1.7l0,0c-0.8,1.3-2,2-3.6,2c-1.2,0-2.1-0.3-2.7-1s-1-1.5-1-2.6c0-2.3,1.4-3.6,4.1-4
			l3.2-0.4c0-1.3-0.7-2-2.1-2s-2.8,0.4-4.1,1.3v-2.8c0.5-0.3,1.2-0.5,2.1-0.7s1.7-0.3,2.4-0.3c3.4,0,5.1,1.7,5.1,5.1L124.6,215.5
			L124.6,215.5z M121.1,210.7v-0.8l-2.2,0.3c-1.2,0.2-1.8,0.7-1.8,1.6c0,0.4,0.1,0.8,0.4,1c0.3,0.3,0.7,0.4,1.2,0.4
			c0.7,0,1.3-0.2,1.7-0.7C120.9,212,121.1,211.4,121.1,210.7z"/>
		<path class="st0" d="M135.2,200.7c-0.5-0.2-0.9-0.3-1.4-0.3c-1.2,0-1.8,0.6-1.8,1.9v1.3h2.7v2.7H132v9.2h-3.7v-9.2h-2v-2.7h2v-1.5
			c0-1.4,0.4-2.5,1.3-3.3c0.9-0.8,2.1-1.2,3.6-1.2c0.7,0,1.4,0.1,1.9,0.2L135.2,200.7L135.2,200.7z"/>
		<path class="st0" d="M142.3,215.8c-2,0-3.5-0.6-4.7-1.7c-1.1-1.1-1.7-2.6-1.7-4.5c0-2,0.6-3.5,1.8-4.6s2.8-1.7,4.8-1.7
			s3.5,0.6,4.7,1.7c1.1,1.1,1.7,2.6,1.7,4.4c0,2-0.6,3.5-1.7,4.7C145.9,215.2,144.3,215.8,142.3,215.8z M142.4,206.1
			c-0.9,0-1.5,0.3-2,0.9c-0.5,0.6-0.7,1.4-0.7,2.5c0,2.3,0.9,3.4,2.8,3.4c1.8,0,2.6-1.2,2.6-3.5C145,207.2,144.2,206.1,142.4,206.1z
			"/>
		<path class="st0" d="M159,206.9c-0.4-0.2-1-0.4-1.5-0.4c-0.8,0-1.4,0.3-1.9,0.9s-0.7,1.4-0.7,2.4v5.7h-3.7v-11.9h3.7v2.2l0,0
			c0.6-1.6,1.6-2.4,3.1-2.4c0.4,0,0.7,0,0.9,0.1L159,206.9L159,206.9z"/>
		<path class="st0" d="M179.7,215.5H176v-6.8c0-1.7-0.6-2.6-1.9-2.6c-0.6,0-1.1,0.3-1.5,0.8s-0.6,1.2-0.6,1.9v6.7h-3.7v-6.9
			c0-1.7-0.6-2.5-1.9-2.5c-0.6,0-1.1,0.2-1.5,0.7s-0.6,1.2-0.6,2v6.6h-3.7v-11.9h3.7v1.9l0,0c0.4-0.6,0.9-1.2,1.6-1.6
			c0.7-0.4,1.4-0.6,2.3-0.6c1.7,0,2.8,0.7,3.5,2.2c0.9-1.5,2.2-2.2,4-2.2c2.6,0,3.9,1.6,3.9,4.8L179.7,215.5L179.7,215.5z"/>
		<path class="st0" d="M192.5,215.5H189v-1.7l0,0c-0.8,1.3-2,2-3.6,2c-1.2,0-2.1-0.3-2.7-1s-1-1.5-1-2.6c0-2.3,1.4-3.6,4.1-4
			l3.2-0.4c0-1.3-0.7-2-2.1-2c-1.4,0-2.8,0.4-4.1,1.3v-2.8c0.5-0.3,1.2-0.5,2.1-0.7c0.9-0.2,1.7-0.3,2.4-0.3c3.4,0,5.1,1.7,5.1,5.1
			v7.1H192.5z M189,210.7v-0.8l-2.2,0.3c-1.2,0.2-1.8,0.7-1.8,1.6c0,0.4,0.1,0.8,0.4,1c0.3,0.3,0.7,0.4,1.2,0.4
			c0.7,0,1.3-0.2,1.7-0.7C188.8,212,189,211.4,189,210.7z"/>
		<path class="st0" d="M213.7,215.5H210v-1.6l0,0c-0.8,1.3-2.1,1.9-3.7,1.9c-1.5,0-2.7-0.5-3.6-1.6s-1.4-2.5-1.4-4.4
			c0-2,0.5-3.6,1.5-4.7c1-1.2,2.3-1.8,3.9-1.8c1.5,0,2.6,0.6,3.2,1.7l0,0v-7.1h3.7v17.6H213.7z M210.1,209.7v-0.9
			c0-0.8-0.2-1.4-0.7-1.9s-1-0.8-1.8-0.8s-1.5,0.3-1.9,1s-0.7,1.5-0.7,2.6c0,1,0.2,1.9,0.7,2.4c0.4,0.6,1.1,0.8,1.8,0.8
			s1.4-0.3,1.8-0.9S210.1,210.7,210.1,209.7z"/>
		<path class="st0" d="M227.5,210.6h-7.8c0.1,1.7,1.2,2.6,3.3,2.6c1.3,0,2.5-0.3,3.5-0.9v2.7c-1.1,0.6-2.5,0.9-4.3,0.9
			c-1.9,0-3.4-0.5-4.5-1.6s-1.6-2.6-1.6-4.5c0-2,0.6-3.5,1.7-4.7c1.1-1.2,2.6-1.7,4.2-1.7c1.7,0,3.1,0.5,4,1.5s1.4,2.4,1.4,4.2v1.5
			H227.5z M224.1,208.3c0-1.7-0.7-2.6-2.1-2.6c-0.6,0-1.1,0.2-1.5,0.7s-0.7,1.1-0.8,1.8h4.4V208.3z"/>
		<path class="st0" d="M21.1,244.1h-3.5v-1.7l0,0c-0.8,1.3-2,2-3.6,2c-1.2,0-2.1-0.3-2.7-1c-0.7-0.7-1-1.5-1-2.6
			c0-2.3,1.4-3.6,4.1-4l3.2-0.4c0-1.3-0.7-2-2.1-2s-2.8,0.4-4.1,1.3v-2.8c0.5-0.3,1.2-0.5,2.1-0.7c0.9-0.2,1.7-0.3,2.4-0.3
			c3.4,0,5.1,1.7,5.1,5.1v7.1H21.1z M17.6,239.3v-0.8l-2.2,0.3c-1.2,0.2-1.8,0.7-1.8,1.6c0,0.4,0.1,0.8,0.4,1
			c0.3,0.3,0.7,0.4,1.2,0.4c0.7,0,1.3-0.2,1.7-0.7C17.4,240.6,17.6,240,17.6,239.3z"/>
		<path class="st0" d="M27.7,242.7L27.7,242.7v6.9H24v-17.4h3.7v1.8l0,0c0.9-1.4,2.2-2.1,3.8-2.1c1.5,0,2.7,0.5,3.6,1.6
			c0.8,1.1,1.3,2.5,1.3,4.3c0,2-0.5,3.6-1.5,4.8s-2.3,1.8-3.9,1.8C29.6,244.4,28.5,243.8,27.7,242.7z M27.6,237.8v1
			c0,0.8,0.2,1.5,0.7,2c0.4,0.5,1,0.8,1.7,0.8c0.8,0,1.5-0.3,2-1c0.5-0.7,0.7-1.6,0.7-2.8c0-2.1-0.8-3.1-2.4-3.1
			c-0.8,0-1.4,0.3-1.8,0.9C27.9,236.1,27.6,236.9,27.6,237.8z"/>
		<path class="st0" d="M46.6,235.5c-0.4-0.2-1-0.4-1.5-0.4c-0.8,0-1.4,0.3-1.9,0.9c-0.5,0.6-0.7,1.4-0.7,2.4v5.7h-3.7v-11.9h3.7v2.2
			l0,0c0.6-1.6,1.6-2.4,3.1-2.4c0.4,0,0.7,0,0.9,0.1v3.4H46.6z"/>
		<path class="st0" d="M58.9,239.2h-7.8c0.1,1.7,1.2,2.6,3.3,2.6c1.3,0,2.5-0.3,3.5-0.9v2.7c-1.1,0.6-2.5,0.9-4.3,0.9
			c-1.9,0-3.4-0.5-4.5-1.6s-1.6-2.6-1.6-4.5c0-2,0.6-3.5,1.7-4.7c1.1-1.2,2.6-1.7,4.2-1.7c1.7,0,3.1,0.5,4,1.5c1,1,1.4,2.4,1.4,4.2
			L58.9,239.2L58.9,239.2z M55.5,236.9c0-1.7-0.7-2.6-2.1-2.6c-0.6,0-1.1,0.2-1.5,0.7s-0.7,1.1-0.8,1.8h4.4V236.9z"/>
		<path class="st0" d="M72.6,244.1h-3.7v-6.6c0-1.8-0.7-2.8-2-2.8c-0.6,0-1.2,0.2-1.6,0.7s-0.6,1.1-0.6,1.9v6.8H61v-11.9h3.7v1.9
			l0,0c0.9-1.5,2.2-2.2,3.8-2.2c2.6,0,4,1.6,4,4.9L72.6,244.1L72.6,244.1z"/>
		<path class="st0" d="M87.2,244.1h-3.7v-1.6l0,0c-0.8,1.3-2.1,1.9-3.7,1.9c-1.5,0-2.7-0.5-3.6-1.6s-1.4-2.5-1.4-4.4
			c0-2,0.5-3.6,1.5-4.7s2.3-1.8,3.9-1.8c1.5,0,2.6,0.6,3.2,1.7l0,0v-7.1h3.7L87.2,244.1L87.2,244.1z M83.6,238.3v-0.9
			c0-0.8-0.2-1.4-0.7-1.9s-1-0.8-1.8-0.8s-1.5,0.3-1.9,1c-0.5,0.6-0.7,1.5-0.7,2.6c0,1,0.2,1.9,0.7,2.4c0.4,0.6,1.1,0.9,1.8,0.9
			c0.7,0,1.4-0.3,1.8-0.9C83.3,240.1,83.6,239.3,83.6,238.3z"/>
		<path class="st0" d="M92.1,230.3c-0.6,0-1.1-0.2-1.5-0.6c-0.4-0.4-0.6-0.8-0.6-1.4c0-0.6,0.2-1,0.6-1.4s0.9-0.5,1.5-0.5
			s1.1,0.2,1.5,0.5s0.6,0.8,0.6,1.4c0,0.6-0.2,1-0.6,1.4C93.3,230.1,92.8,230.3,92.1,230.3z M94,244.1h-3.7v-11.9H94V244.1z"/>
		<path class="st0" d="M106.5,244.1H95.8v-1.5l6-7.7h-5.4v-2.7h10.1v1.8l-5.7,7.4h5.7V244.1z"/>
		<path class="st0" d="M118.4,244.1h-3.5v-1.7l0,0c-0.8,1.3-2,2-3.6,2c-1.2,0-2.1-0.3-2.7-1c-0.7-0.7-1-1.5-1-2.6
			c0-2.3,1.4-3.6,4.1-4l3.2-0.4c0-1.3-0.7-2-2.1-2s-2.8,0.4-4.1,1.3v-2.8c0.5-0.3,1.2-0.5,2.1-0.7s1.7-0.3,2.4-0.3
			c3.4,0,5.1,1.7,5.1,5.1L118.4,244.1L118.4,244.1z M114.9,239.3v-0.8l-2.2,0.3c-1.2,0.2-1.8,0.7-1.8,1.6c0,0.4,0.1,0.8,0.4,1
			c0.3,0.3,0.7,0.4,1.2,0.4c0.7,0,1.3-0.2,1.7-0.7C114.7,240.6,114.9,240,114.9,239.3z"/>
		<path class="st0" d="M133,242.7c0,2.2-0.6,3.9-1.9,5.1s-3.1,1.8-5.6,1.8c-1.6,0-2.9-0.2-3.8-0.7v-3.1c1.2,0.7,2.5,1.1,3.7,1.1
			s2.2-0.3,2.9-1c0.7-0.7,1-1.5,1-2.7v-0.9l0,0c-0.8,1.3-2.1,2-3.7,2c-1.5,0-2.7-0.5-3.6-1.6s-1.3-2.5-1.3-4.3c0-2,0.5-3.6,1.5-4.8
			s2.3-1.8,3.9-1.8c1.5,0,2.5,0.6,3.3,1.7l0,0v-1.4h3.7v10.6H133z M129.4,238.4v-0.9c0-0.8-0.2-1.4-0.7-1.9c-0.4-0.5-1-0.8-1.7-0.8
			c-0.8,0-1.5,0.3-1.9,1s-0.7,1.5-0.7,2.7c0,1,0.2,1.8,0.7,2.4c0.4,0.6,1,0.9,1.8,0.9s1.4-0.3,1.8-0.9
			C129.1,240.1,129.4,239.3,129.4,238.4z"/>
		<path class="st0" d="M146.8,239.2H139c0.1,1.7,1.2,2.6,3.3,2.6c1.3,0,2.5-0.3,3.5-0.9v2.7c-1.1,0.6-2.5,0.9-4.3,0.9
			c-1.9,0-3.4-0.5-4.5-1.6s-1.6-2.6-1.6-4.5c0-2,0.6-3.5,1.7-4.7c1.1-1.2,2.6-1.7,4.2-1.7c1.7,0,3.1,0.5,4,1.5c1,1,1.4,2.4,1.4,4.2
			v1.5H146.8z M143.4,236.9c0-1.7-0.7-2.6-2.1-2.6c-0.6,0-1.1,0.2-1.5,0.7s-0.7,1.1-0.8,1.8h4.4V236.9z"/>
		<path class="st0" d="M167.9,244.1h-3.7v-6.8c0-1.7-0.6-2.6-1.9-2.6c-0.6,0-1.1,0.3-1.5,0.8s-0.6,1.2-0.6,1.9v6.7h-3.7v-6.9
			c0-1.7-0.6-2.5-1.9-2.5c-0.6,0-1.1,0.2-1.5,0.7s-0.6,1.2-0.6,2v6.6H149v-11.9h3.7v1.9l0,0c0.4-0.6,0.9-1.2,1.6-1.6
			c0.7-0.4,1.4-0.6,2.3-0.6c1.7,0,2.8,0.7,3.5,2.2c0.9-1.5,2.2-2.2,4-2.2c2.6,0,3.9,1.6,3.9,4.8v7.5H167.9z"/>
		<path class="st0" d="M187.3,244.1h-3.5v-1.7l0,0c-0.8,1.3-2,2-3.6,2c-1.2,0-2.1-0.3-2.7-1c-0.7-0.7-1-1.5-1-2.6
			c0-2.3,1.4-3.6,4.1-4l3.2-0.4c0-1.3-0.7-2-2.1-2c-1.4,0-2.8,0.4-4.1,1.3v-2.8c0.5-0.3,1.2-0.5,2.1-0.7c0.9-0.2,1.7-0.3,2.4-0.3
			c3.4,0,5.1,1.7,5.1,5.1v7.1H187.3z M183.9,239.3v-0.8l-2.2,0.3c-1.2,0.2-1.8,0.7-1.8,1.6c0,0.4,0.1,0.8,0.4,1
			c0.3,0.3,0.7,0.4,1.2,0.4c0.7,0,1.3-0.2,1.7-0.7C183.6,240.6,183.9,240,183.9,239.3z"/>
		<path class="st0" d="M201.9,244.1h-3.7v-1.6l0,0c-0.8,1.3-2.1,1.9-3.7,1.9c-1.5,0-2.7-0.5-3.6-1.6s-1.4-2.5-1.4-4.4
			c0-2,0.5-3.6,1.5-4.7s2.3-1.8,3.9-1.8c1.5,0,2.6,0.6,3.2,1.7l0,0v-7.1h3.7v17.6H201.9z M198.3,238.3v-0.9c0-0.8-0.2-1.4-0.7-1.9
			s-1-0.8-1.8-0.8s-1.5,0.3-1.9,1c-0.5,0.6-0.7,1.5-0.7,2.6c0,1,0.2,1.9,0.7,2.4c0.4,0.6,1.1,0.9,1.8,0.9s1.4-0.3,1.8-0.9
			C198,240.1,198.3,239.3,198.3,238.3z"/>
		<path class="st0" d="M214.9,244.1h-3.5v-1.7l0,0c-0.8,1.3-2,2-3.6,2c-1.2,0-2.1-0.3-2.7-1c-0.7-0.7-1-1.5-1-2.6
			c0-2.3,1.4-3.6,4.1-4l3.2-0.4c0-1.3-0.7-2-2.1-2c-1.4,0-2.8,0.4-4.1,1.3v-2.8c0.5-0.3,1.2-0.5,2.1-0.7c0.9-0.2,1.7-0.3,2.4-0.3
			c3.4,0,5.1,1.7,5.1,5.1v7.1H214.9z M211.5,239.3v-0.8l-2.2,0.3c-1.2,0.2-1.8,0.7-1.8,1.6c0,0.4,0.1,0.8,0.4,1
			c0.3,0.3,0.7,0.4,1.2,0.4c0.7,0,1.3-0.2,1.7-0.7C211.2,240.6,211.5,240,211.5,239.3z"/>
		<path class="st0" d="M221.5,242.7L221.5,242.7v6.9h-3.7v-17.4h3.7v1.8l0,0c0.9-1.4,2.2-2.1,3.8-2.1c1.5,0,2.7,0.5,3.6,1.6
			c0.8,1.1,1.3,2.5,1.3,4.3c0,2-0.5,3.6-1.5,4.8s-2.3,1.8-3.9,1.8C223.4,244.4,222.3,243.8,221.5,242.7z M221.4,237.8v1
			c0,0.8,0.2,1.5,0.7,2c0.4,0.5,1,0.8,1.7,0.8c0.8,0,1.5-0.3,2-1s0.7-1.6,0.7-2.8c0-2.1-0.8-3.1-2.4-3.1c-0.8,0-1.4,0.3-1.8,0.9
			C221.7,236.1,221.4,236.9,221.4,237.8z"/>
		<path class="st0" d="M239.8,244c-0.5,0.3-1.4,0.4-2.5,0.4c-2.6,0-3.9-1.3-3.9-4v-5.5h-1.9v-2.7h1.9v-2.6l3.7-1v3.6h2.7v2.7h-2.7
			v4.8c0,1.2,0.5,1.9,1.5,1.9c0.4,0,0.8-0.1,1.2-0.3V244z"/>
		<path class="st0" d="M251.8,244.1h-3.5v-1.7l0,0c-0.8,1.3-2,2-3.6,2c-1.2,0-2.1-0.3-2.7-1c-0.7-0.7-1-1.5-1-2.6
			c0-2.3,1.4-3.6,4.1-4l3.2-0.4c0-1.3-0.7-2-2.1-2c-1.4,0-2.8,0.4-4.1,1.3v-2.8c0.5-0.3,1.2-0.5,2.1-0.7c0.9-0.2,1.7-0.3,2.4-0.3
			c3.4,0,5.1,1.7,5.1,5.1v7.1H251.8z M248.3,239.3v-0.8l-2.2,0.3c-1.2,0.2-1.8,0.7-1.8,1.6c0,0.4,0.1,0.8,0.4,1
			c0.3,0.3,0.7,0.4,1.2,0.4c0.7,0,1.3-0.2,1.7-0.7C248.1,240.6,248.3,240,248.3,239.3z"/>
		<path class="st0" d="M261.9,244c-0.5,0.3-1.4,0.4-2.5,0.4c-2.6,0-3.9-1.3-3.9-4v-5.5h-1.9v-2.7h1.9v-2.6l3.7-1v3.6h2.7v2.7h-2.7
			v4.8c0,1.2,0.5,1.9,1.5,1.9c0.4,0,0.8-0.1,1.2-0.3L261.9,244L261.9,244z"/>
		<path class="st0" d="M265.9,230.3c-0.6,0-1.1-0.2-1.5-0.6c-0.4-0.4-0.6-0.8-0.6-1.4c0-0.6,0.2-1,0.6-1.4s0.9-0.5,1.5-0.5
			s1.1,0.2,1.5,0.5s0.6,0.8,0.6,1.4c0,0.6-0.2,1-0.6,1.4C267,230.1,266.5,230.3,265.9,230.3z M267.7,244.1H264v-11.9h3.7V244.1z"/>
		<path class="st0" d="M282.1,232.2l-4.4,11.9h-4.2l-4.2-11.9h3.9l2.1,7.3c0.2,0.8,0.4,1.5,0.4,2.1l0,0c0.1-0.6,0.2-1.2,0.4-2
			l2.1-7.4L282.1,232.2L282.1,232.2z"/>
		<path class="st0" d="M293.3,244.1h-3.5v-1.7l0,0c-0.8,1.3-2,2-3.6,2c-1.2,0-2.1-0.3-2.7-1c-0.7-0.7-1-1.5-1-2.6
			c0-2.3,1.4-3.6,4.1-4l3.2-0.4c0-1.3-0.7-2-2.1-2s-2.8,0.4-4.1,1.3v-2.8c0.5-0.3,1.2-0.5,2.1-0.7s1.7-0.3,2.4-0.3
			c3.4,0,5.1,1.7,5.1,5.1v7.1H293.3z M289.8,239.3v-0.8l-2.2,0.3c-1.2,0.2-1.8,0.7-1.8,1.6c0,0.4,0.1,0.8,0.4,1
			c0.3,0.3,0.7,0.4,1.2,0.4c0.7,0,1.3-0.2,1.7-0.7C289.6,240.6,289.8,240,289.8,239.3z"/>
	</g>
	<ellipse id="XMLID_13786_" class="st1" cx="152.1" cy="96.1" rx="86.1" ry="86.1"/>
	<g id="XMLID_13776_">
		<path id="XMLID_13287_" class="st2" d="M152.1,16.7c-1.6,0-2.9,1.3-2.9,2.9v22.2h5.7V19.6C155,18,153.7,16.7,152.1,16.7z"/>
		<path id="XMLID_13278_" class="st2" d="M75.6,93c-1.6,0-2.9,1.3-2.9,2.9s1.3,2.9,2.9,2.9h22.2V93H75.6z"/>
		<path id="XMLID_13219_" class="st2" d="M149.3,150.5v22.2c0,1.6,1.3,2.9,2.9,2.9c1.6,0,2.9-1.3,2.9-2.9v-22.2H149.3z"/>
		<path id="XMLID_13144_" class="st2" d="M228.7,93h-22.2v5.7h22.2c1.6,0,2.9-1.3,2.9-2.9C231.5,94.3,230.2,93,228.7,93z"/>
	</g>
	<circle id="XMLID_13775_" class="st3" cx="152.1" cy="96.1" r="68.9"/>
	<path id="XMLID_13774_" class="st0" d="M152.1,150.6c-30.1,0-54.5-24.5-54.5-54.5s24.5-54.5,54.5-54.5c30.1,0,54.5,24.5,54.5,54.5
		S182.2,150.6,152.1,150.6z"/>
	<path id="XMLID_13771_" class="st4" d="M200.8,47.4l-48.1,35.3c-3.6-0.2-7.3,1.1-10.1,3.9l1.8,17.1l17.1,1.8
		c2.8-2.8,4.1-6.5,3.9-10.1L200.8,47.4z"/>
	<path id="XMLID_13763_" class="st5" d="M142.7,86.6c-2.8,2.8-4.1,6.5-3.9,10.1l-35.3,48.1l48.1-35.3c3.6,0.2,7.3-1.1,10.1-3.9
		L142.7,86.6z"/>
	<circle id="XMLID_13762_" class="st6" cx="152.1" cy="96.1" r="3.8"/>
	<g id="XMLID_13745_">
		<polygon id="XMLID_13759_" class="st4" points="252.4,160.4 225.8,160.4 233.9,152.4 233.9,125.4 252.4,125.4 242.4,141.9 		"/>
		<rect id="XMLID_13756_" x="73.3" y="110.7" class="st4" width="157.6" height="41.1"/>
		<rect id="XMLID_13753_" x="73.3" y="110.7" class="st5" width="79.7" height="41.1"/>
		<polygon id="XMLID_13750_" class="st5" points="51.8,160.4 61.8,141.9 51.8,125.4 70.3,125.4 70.3,152.4 78.5,160.4 		"/>
	</g>
	<g id="XMLID_13739_">
		<path id="XMLID_13286_" class="st2" d="M161,47.6c-1,0-2.1,0.1-3,0.4l10.9,10.9L158,69.7c1,0.3,2,0.4,3,0.4
			c6.2,0,11.3-5.1,11.2-11.3C172.2,52.6,167.2,47.6,161,47.6z"/>
		<path id="XMLID_2987_" class="st2" d="M156.1,64.7c-2.9,0-5.3-2.1-5.8-5l1-0.9l-0.9-0.9c0.5-2.7,2.8-4.8,5.7-4.8
			c3.2,0,5.8,2.6,5.8,5.8c0,1.5-0.5,2.8-1.4,3.9l3.8-3.8l-9.3-9.5c-2.8,1.7-4.7,4.6-5.1,8l-9.9-9.8h-4.2l11,11.2l-3.6,3.5
			c0.8-1,1.2-2.2,1.2-3.6c0-3.2-2.6-5.8-5.8-5.8s-5.8,2.6-5.8,5.8s2.6,5.8,5.8,5.8c1.3,0,2.5-0.4,3.5-1.2l-6.5,6.4h4.6l9.7-9.5
			c0.4,3.4,2.3,6.3,5,8.1l5.1-5.1C158.9,64.1,157.5,64.7,156.1,64.7z"/>
	</g>
	<g id="XMLID_5500_">
		<path id="XMLID_13738_" class="st0" d="M131.2,132.2c0,0.5-0.2,1.1-1,1.8c-0.7,0.6-2.2,0.7-2.2,0.7v5.4c0,0,2.4,0.6,6.1-1.9
			c3.1-2.1,3.3-5.9,3.3-5.9V118h-6.2C131.1,118,131.2,131.6,131.2,132.2z"/>
		<polygon id="XMLID_13737_" class="st0" points="138.8,140.1 150.9,140 150.9,134.8 144.7,134.8 144.7,131.4 150.4,131.4 
			150.4,126.1 144.8,126.2 144.8,123.3 151.2,123.2 151.1,118 138.8,118 		"/>
		
			<rect id="XMLID_13736_" x="168.1" y="117.9" transform="matrix(1 -2.565581e-03 2.565581e-03 1 -0.3301 0.439)" class="st0" width="5.7" height="22"/>
		<path id="XMLID_13732_" class="st0" d="M97.7,118c-6.3,0-11.4,5.1-11.4,11.5c0,6.3,5.1,11.4,11.5,11.4c6.3,0,11.4-5.1,11.4-11.5
			C109.1,123.1,104,118,97.7,118z M97.9,135.5c-3.3,0-6-2.7-6-6s2.7-6,6-6s6,2.7,6,6C103.8,132.8,101.2,135.5,97.9,135.5z"/>
		<path id="XMLID_13293_" class="st0" d="M206.5,117.7c-6.3,0-11.4,5.1-11.4,11.5c0,6.3,5.1,11.4,11.5,11.4
			c6.3,0,11.4-5.1,11.4-11.5C217.9,122.8,212.8,117.7,206.5,117.7z M206.6,135.3c-3.3,0-6-2.7-6-6s2.7-6,6-6s6,2.7,6,6
			S209.9,135.2,206.6,135.3z"/>
		<polygon id="XMLID_13292_" class="st0" points="191.1,117.9 186.2,129.9 181.2,117.9 174.9,117.9 184,139.9 188.4,139.9 
			197.4,117.8 		"/>
		<path id="XMLID_5517_" class="st0" d="M122.7,128.5c0,0,2.9-1.2,2.9-4.4c0-5.5-6.4-6-6.4-6h-8.1l0.1,22h9.1c0,0,6.7-0.9,6.7-6
			C126.9,130.2,122.7,128.5,122.7,128.5z M116.7,123h2.3c0,0,1.4,0.1,1.4,1.7c0,1.5-1.6,1.6-1.6,1.6h-2.1L116.7,123z M119.5,135
			h-2.8v-3.4h3.4c0,0,1.2,0.1,1.2,1.8C121.2,134.9,119.5,135,119.5,135z"/>
		<polygon id="XMLID_5510_" class="st0" points="152.4,123.2 156.9,123.2 156.9,140 162.6,139.9 162.6,123.2 167,123.2 167,118 
			152.4,118 		"/>
	</g>
	<g id="XMLID_3_">
		<path id="XMLID_22_" class="st0" d="M106.8,158.4L106.8,158.4h0.6c0.7,0,1.3,0.3,1.7,0.7c0.5,0.5,0.7,1.1,0.7,1.7
			s-0.3,1.2-0.7,1.7c-0.5,0.5-1,0.7-1.7,0.7h-0.6v2.5h-1.3v-7.3H106.8z M105.5,158.4h1.3H105.5z M106.8,159.7v2.1h0.6
			c0.3,0,0.5-0.1,0.7-0.3c0.2-0.2,0.3-0.5,0.3-0.7s-0.1-0.5-0.3-0.7c-0.2-0.2-0.5-0.3-0.7-0.3C107.4,159.7,106.8,159.7,106.8,159.7z
			"/>
		<path id="XMLID_21_" class="st0" d="M114.6,165.7h-1.5l-1.5-2.5h-0.2v2.5h-1.3v-7.3h1.3l0,0h0.6c0.7,0,1.3,0.3,1.7,0.7
			c0.5,0.5,0.7,1,0.7,1.7c0,0.7-0.3,1.3-0.7,1.7c-0.2,0.2-0.5,0.4-0.7,0.5L114.6,165.7z M111.4,161.9h0.6c0.3,0,0.5-0.1,0.7-0.3
			c0.2-0.2,0.3-0.5,0.3-0.7s-0.1-0.5-0.3-0.7c-0.2-0.2-0.5-0.3-0.7-0.3h-0.6V161.9z"/>
		<path id="XMLID_19_" class="st0" d="M121.4,159.3c0.7,0.7,1.1,1.6,1.1,2.7s-0.4,2-1.1,2.7c-0.7,0.7-1.6,1.1-2.7,1.1
			c-1.1,0-2-0.4-2.7-1.1c-0.7-0.7-1.1-1.6-1.1-2.7c0-1.1,0.4-2,1.1-2.7c0.7-0.7,1.6-1.1,2.7-1.1
			C119.8,158.2,120.7,158.6,121.4,159.3z M118.7,159.5c-0.7,0-1.3,0.3-1.7,0.7c-0.5,0.5-0.7,1.1-0.7,1.7c0,0.7,0.3,1.3,0.7,1.8
			c0.5,0.5,1.1,0.7,1.7,0.7c0.7,0,1.3-0.3,1.8-0.7c0.5-0.5,0.7-1.1,0.7-1.8c0-0.7-0.3-1.3-0.7-1.7
			C120,159.8,119.4,159.5,118.7,159.5z"/>
		<path id="XMLID_18_" class="st0" d="M123.3,158.5l2,4.2l2-4.2h1.5l-2.9,6l-0.6,1.3l-0.6-1.3l-2.9-6H123.3z M121.8,158.5h1.5H121.8
			z"/>
		<path id="XMLID_17_" class="st0" d="M130.8,164h-2.5l-0.8,1.7h-1.5l2.9-6l0.6-1.3l0.6,1.2l2.9,6h-1.5L130.8,164z M128.8,162.8h1.3
			l-0.7-1.4L128.8,162.8z M129.5,161.4l-0.7,1.4L129.5,161.4z"/>
		<path id="XMLID_16_" class="st0" d="M136.5,160.2c-0.1-0.1-0.2-0.3-0.4-0.3c-0.2-0.1-0.4-0.1-0.6-0.1c-0.2,0-0.3,0.1-0.4,0.2
			c-0.1,0.1-0.2,0.3-0.2,0.4c0,0.1,0,0.2,0.1,0.3c0.1,0.1,0.1,0.2,0.2,0.3s0.2,0.1,0.3,0.1c0.1,0.1,0.3,0.1,0.4,0.1
			c0.2,0.1,0.3,0.1,0.5,0.2c0.2,0.1,0.4,0.2,0.6,0.3c0.3,0.2,0.5,0.5,0.7,0.8c0.1,0.3,0.2,0.7,0.2,1c-0.1,0.5-0.3,0.9-0.6,1.3
			c-0.3,0.3-0.7,0.6-1.3,0.7c-0.5,0.1-0.9,0-1.4-0.2c-0.4-0.2-0.8-0.5-1-0.9c-0.1-0.1-0.1-0.3-0.2-0.4c-0.1-0.1-0.1-0.3-0.1-0.4
			l1.3-0.2c0,0.1,0.1,0.1,0.1,0.2c0,0.1,0,0.1,0.1,0.2c0.1,0.2,0.3,0.3,0.5,0.4c0.2,0.1,0.5,0.1,0.7,0.1c0.2-0.1,0.3-0.1,0.5-0.3
			c0.1-0.1,0.2-0.3,0.2-0.5c0-0.1,0-0.3-0.1-0.4c-0.1-0.1-0.1-0.3-0.3-0.3c-0.1-0.1-0.2-0.1-0.3-0.2c-0.1-0.1-0.3-0.1-0.4-0.1
			c-0.2-0.1-0.4-0.1-0.5-0.2c-0.2-0.1-0.4-0.2-0.6-0.3c-0.3-0.2-0.5-0.5-0.6-0.8c-0.1-0.3-0.2-0.7-0.2-0.9c0.1-0.5,0.3-0.9,0.5-1.2
			c0.3-0.3,0.7-0.5,1.2-0.6s0.9,0,1.3,0.2c0.4,0.2,0.7,0.5,0.9,0.9L136.5,160.2z M136.5,160.2l1.1-0.6L136.5,160.2z"/>
		<path id="XMLID_15_" class="st0" d="M142.4,161.4h1.9v1.3h-1.9v1.6h2.6v1.3h-4v-7.3h4v1.3h-2.6V161.4z M142.4,159.7v1.7V159.7z"/>
		<path id="XMLID_14_" class="st0" d="M151.6,160.2c-0.1-0.1-0.2-0.3-0.4-0.3c-0.2-0.1-0.4-0.1-0.6-0.1c-0.2,0-0.3,0.1-0.4,0.2
			s-0.2,0.3-0.2,0.4c0,0.1,0,0.2,0.1,0.3c0.1,0.1,0.1,0.2,0.2,0.3c0.1,0.1,0.2,0.1,0.3,0.1c0.1,0.1,0.3,0.1,0.4,0.1
			c0.2,0.1,0.3,0.1,0.5,0.2c0.2,0.1,0.4,0.2,0.6,0.3c0.3,0.2,0.5,0.5,0.7,0.8c0.1,0.3,0.2,0.7,0.2,1c-0.1,0.5-0.3,0.9-0.6,1.3
			c-0.3,0.3-0.7,0.6-1.3,0.7c-0.5,0.1-0.9,0-1.4-0.2c-0.4-0.2-0.8-0.5-1-0.9c-0.1-0.1-0.1-0.3-0.2-0.4c-0.1-0.1-0.1-0.3-0.1-0.4
			l1.3-0.2c0,0.1,0.1,0.1,0.1,0.2c0,0.1,0,0.1,0.1,0.2c0.1,0.2,0.3,0.3,0.5,0.4c0.2,0.1,0.5,0.1,0.7,0.1c0.2-0.1,0.3-0.1,0.5-0.3
			c0.1-0.1,0.2-0.3,0.2-0.5c0-0.1,0-0.3-0.1-0.4c-0.1-0.1-0.1-0.3-0.3-0.3c-0.1-0.1-0.2-0.1-0.3-0.2c-0.1-0.1-0.3-0.1-0.4-0.1
			c-0.2-0.1-0.4-0.1-0.5-0.2c-0.2-0.1-0.4-0.2-0.6-0.3c-0.3-0.2-0.5-0.5-0.6-0.8c-0.1-0.3-0.2-0.7-0.2-0.9c0.1-0.5,0.3-0.9,0.5-1.2
			c0.3-0.3,0.7-0.5,1.2-0.6s0.9,0,1.3,0.2c0.4,0.2,0.7,0.5,0.9,0.9L151.6,160.2z M151.6,160.2l1.1-0.6L151.6,160.2z"/>
		<path id="XMLID_12_" class="st0" d="M154.7,158.4v7.2h-1.3v-7.2H154.7z M153.3,158.4h1.3H153.3z"/>
		<path id="XMLID_11_" class="st0" d="M155.1,165.7l2.1-5.8l0.5-1.5l0.7,1.4l1.5,3.2l1.5-3.2l0.7-1.4l0.5,1.5l2.1,5.8h-1.4l-1.4-3.9
			l-2,3.9l-2-3.9l-1.3,3.9H155.1z M155.1,165.7h1.4H155.1z"/>
		<path id="XMLID_10_" class="st0" d="M166.4,158.4v2.7v1.2v0.3c0,0.4,0,0.8,0.1,1.1c0.1,0.2,0.3,0.4,0.5,0.5
			c0.2,0.1,0.4,0.2,0.7,0.2c0.2,0,0.4-0.1,0.6-0.2c0.2-0.1,0.3-0.3,0.5-0.5c0.2-0.3,0.2-0.7,0.2-1.1v-0.1v-1.5v-2.7h1.3v2.7v1.5v0.1
			c0,0.6,0,1.2-0.3,1.8c-0.3,0.4-0.5,0.7-0.9,0.9c-0.4,0.2-0.8,0.3-1.3,0.3c-0.5,0-0.9-0.1-1.3-0.4c-0.4-0.3-0.7-0.6-0.9-1.1
			c-0.3-0.6-0.3-1.1-0.3-1.7c0-0.1,0-0.2,0-0.3v-1.2v-2.7L166.4,158.4L166.4,158.4z M166.4,158.4H165H166.4z"/>
		<path id="XMLID_9_" class="st0" d="M171.9,158.4v5.9h2.4v1.3h-2.4l0,0h-1.3v-7.2H171.9z M171.9,158.4h-1.3H171.9z"/>
		<path id="XMLID_8_" class="st0" d="M179.4,164h-2.5l-0.8,1.7h-1.5l2.9-6l0.6-1.3l0.6,1.2l2.9,6h-1.5L179.4,164z M177.5,162.8h1.3
			l-0.7-1.4L177.5,162.8z M178.2,161.4l-0.7,1.4L178.2,161.4z"/>
		<path id="XMLID_7_" class="st0" d="M181.6,158.4L181.6,158.4h0.9c1,0,1.9,0.4,2.5,1.1c0.7,0.7,1.1,1.5,1.1,2.5
			c0,1-0.4,1.9-1.1,2.5c-0.7,0.7-1.5,1.1-2.5,1.1h-1.2h-0.9v-7.2H181.6z M180.2,158.4h1.3H180.2z M181.6,159.7v4.6h0.9
			c0.6,0,1.2-0.3,1.6-0.7c0.4-0.4,0.7-1,0.7-1.6c0-0.6-0.3-1.2-0.7-1.6c-0.4-0.4-1-0.7-1.6-0.7L181.6,159.7L181.6,159.7z"/>
		<path id="XMLID_5_" class="st0" d="M193.2,159.3c0.7,0.7,1.1,1.6,1.1,2.7s-0.4,2-1.1,2.7c-0.7,0.7-1.6,1.1-2.7,1.1s-2-0.4-2.7-1.1
			c-0.7-0.7-1.1-1.6-1.1-2.7c0-1.1,0.4-2,1.1-2.7c0.7-0.7,1.6-1.1,2.7-1.1S192.4,158.6,193.2,159.3z M190.5,159.5
			c-0.7,0-1.3,0.3-1.7,0.7c-0.5,0.5-0.7,1.1-0.7,1.7c0,0.7,0.3,1.3,0.7,1.8c0.5,0.5,1.1,0.7,1.7,0.7c0.7,0,1.3-0.3,1.8-0.7
			c0.5-0.5,0.7-1.1,0.7-1.8c0-0.7-0.3-1.3-0.7-1.7C191.8,159.8,191.2,159.5,190.5,159.5z"/>
		<path id="XMLID_4_" class="st0" d="M197.9,160.2c-0.1-0.1-0.2-0.3-0.4-0.3c-0.2-0.1-0.4-0.1-0.6-0.1c-0.2,0-0.3,0.1-0.4,0.2
			c-0.1,0.1-0.2,0.3-0.2,0.4c0,0.1,0,0.2,0.1,0.3c0.1,0.1,0.1,0.2,0.2,0.3c0.1,0.1,0.2,0.1,0.3,0.1c0.1,0.1,0.3,0.1,0.4,0.1
			c0.2,0.1,0.3,0.1,0.5,0.2c0.2,0.1,0.4,0.2,0.6,0.3c0.3,0.2,0.5,0.5,0.7,0.8c0.1,0.3,0.2,0.7,0.2,1c-0.1,0.5-0.3,0.9-0.6,1.3
			c-0.3,0.3-0.7,0.6-1.3,0.7c-0.5,0.1-0.9,0-1.4-0.2c-0.4-0.2-0.8-0.5-1-0.9c-0.1-0.1-0.1-0.3-0.2-0.4c-0.1-0.1-0.1-0.3-0.1-0.4
			l1.3-0.2c0,0.1,0.1,0.1,0.1,0.2c0,0.1,0,0.1,0.1,0.2c0.1,0.2,0.3,0.3,0.5,0.4c0.2,0.1,0.5,0.1,0.7,0.1c0.2-0.1,0.3-0.1,0.5-0.3
			c0.1-0.1,0.2-0.3,0.2-0.5c0-0.1,0-0.3-0.1-0.4c-0.1-0.1-0.1-0.3-0.3-0.3c-0.1-0.1-0.2-0.1-0.3-0.2c-0.1-0.1-0.3-0.1-0.4-0.1
			c-0.2-0.1-0.4-0.1-0.5-0.2c-0.2-0.1-0.4-0.2-0.6-0.3c-0.3-0.2-0.5-0.5-0.6-0.8c-0.1-0.3-0.2-0.7-0.2-0.9c0.1-0.5,0.3-0.9,0.5-1.2
			c0.3-0.3,0.7-0.5,1.2-0.6c0.5-0.1,0.9,0,1.3,0.2c0.4,0.2,0.7,0.5,0.9,0.9L197.9,160.2z M197.9,160.2l1.1-0.6L197.9,160.2z"/>
	</g>
</g>
<g id="XMLID_3761_">
	<g id="XMLID_8737_">
		<polygon id="XMLID_8747_" class="st7" points="237.2,379.6 208.1,379.6 217,370.9 217,341.4 237.2,341.4 226.3,359.4 		"/>
		<rect id="XMLID_8744_" x="41.6" y="325.3" class="st7" width="172.1" height="44.8"/>
		<rect id="XMLID_8741_" x="41.6" y="325.3" class="st8" width="87" height="44.8"/>
		<polygon id="XMLID_8738_" class="st8" points="18.2,379.6 29.1,359.4 18.2,341.4 38.4,341.4 38.4,370.9 47.3,379.6 		"/>
	</g>
	<g id="XMLID_8720_">
		<g id="XMLID_8721_">
			<path id="XMLID_8736_" class="st0" d="M104.8,351c0,0.6-0.2,1.2-1.1,2c-0.8,0.6-2.4,0.8-2.4,0.8v5.9c0,0,2.6,0.6,6.6-2
				c3.4-2.3,3.6-6.5,3.6-6.5v-15.7h-6.8C104.8,335.5,104.8,350.4,104.8,351z"/>
			<polygon id="XMLID_8735_" class="st0" points="113.2,359.6 126.4,359.5 126.4,353.8 119.6,353.8 119.6,350.1 125.9,350.1 
				125.8,344.4 119.7,344.4 119.7,341.2 126.6,341.2 126.6,335.5 113.1,335.5 			"/>
			
				<rect id="XMLID_8734_" x="145.2" y="335.4" transform="matrix(1 -2.569700e-03 2.569700e-03 1 -0.8922 0.3821)" class="st0" width="6.2" height="24"/>
			<path id="XMLID_8731_" class="st0" d="M68.3,335.5c-6.9,0-12.5,5.6-12.4,12.5c0,6.9,5.6,12.5,12.5,12.4c6.9,0,12.5-5.6,12.4-12.5
				C80.8,341.1,75.2,335.5,68.3,335.5z M68.4,354.6c-3.6,0-6.5-2.9-6.5-6.5s2.9-6.5,6.5-6.5s6.5,2.9,6.5,6.5
				C75,351.7,72,354.6,68.4,354.6z"/>
			<path id="XMLID_8728_" class="st0" d="M187.1,335.2c-6.9,0-12.5,5.6-12.4,12.5c0,6.9,5.6,12.5,12.5,12.4
				c6.9,0,12.5-5.6,12.4-12.5C199.6,340.8,194,335.2,187.1,335.2z M187.2,354.3c-3.6,0-6.5-2.9-6.5-6.5c0-3.6,2.9-6.5,6.5-6.5
				s6.5,2.9,6.5,6.5C193.7,351.4,190.8,354.3,187.2,354.3z"/>
			<polygon id="XMLID_8727_" class="st0" points="170.3,335.3 164.9,348.4 159.4,335.3 152.6,335.4 162.6,359.4 167.3,359.4 
				177.2,335.3 			"/>
			<path id="XMLID_8723_" class="st0" d="M95.6,346.9c0,0,3.2-1.3,3.2-4.8c0-6.1-7-6.6-7-6.6h-8.9l0.1,24h10c0,0,7.3-1,7.3-6.5
				C100.2,348.8,95.6,346.9,95.6,346.9z M89,341h2.5c0,0,1.6,0.1,1.6,1.9c0,1.6-1.7,1.8-1.7,1.8h-2.3L89,341z M92.1,354.1H89v-3.7
				h3.7c0,0,1.3,0.1,1.3,2C94,354,92.1,354.1,92.1,354.1z"/>
			<polygon id="XMLID_8722_" class="st0" points="128,341.2 132.9,341.2 132.9,359.5 139.1,359.4 139.1,341.2 144,341.1 144,335.4 
				128,335.5 			"/>
		</g>
	</g>
	<g id="XMLID_3765_">
		<g id="XMLID_3767_">
			<path id="XMLID_8719_" class="st9" d="M104.8,351c0,0.6-0.2,1.2-1.1,2c-0.8,0.6-2.4,0.8-2.4,0.8v5.9c0,0,2.6,0.6,6.6-2
				c3.4-2.3,3.6-6.5,3.6-6.5v-15.7h-6.8C104.8,335.5,104.8,350.4,104.8,351z"/>
			<polygon id="XMLID_8718_" class="st9" points="113.2,359.6 126.4,359.5 126.4,353.8 119.6,353.8 119.6,350.1 125.9,350.1 
				125.8,344.4 119.7,344.4 119.7,341.2 126.6,341.2 126.6,335.5 113.1,335.5 			"/>
			<path id="XMLID_8715_" class="st9" d="M68.3,335.5c-6.9,0-12.5,5.6-12.4,12.5c0,6.9,5.6,12.5,12.5,12.4c6.9,0,12.5-5.6,12.4-12.5
				C80.8,341.1,75.2,335.5,68.3,335.5z M68.4,354.6c-3.6,0-6.5-2.9-6.5-6.5s2.9-6.5,6.5-6.5s6.5,2.9,6.5,6.5
				C75,351.7,72,354.6,68.4,354.6z"/>
			<path id="XMLID_3770_" class="st9" d="M95.6,346.9c0,0,3.2-1.3,3.2-4.8c0-6.1-7-6.6-7-6.6h-8.9l0.1,24h10c0,0,7.3-1,7.3-6.5
				C100.2,348.8,95.6,346.9,95.6,346.9z M89,341h2.5c0,0,1.6,0.1,1.6,1.9c0,1.6-1.7,1.8-1.7,1.8h-2.3L89,341z M92.1,354.1H89v-3.7
				h3.7c0,0,1.3,0.1,1.3,2C94,354,92.1,354.1,92.1,354.1z"/>
			<polygon id="XMLID_3768_" class="st9" points="128,335.5 128,335.5 128,340.3 			"/>
		</g>
	</g>
	<g id="XMLID_1_">
		<path id="XMLID_2_" class="st0" d="M58.2,377L58.2,377h0.9c1,0,1.9,0.4,2.5,1c0.7,0.8,1.1,1.6,1.1,2.6s-0.4,1.8-1.1,2.5
			c-0.7,0.7-1.5,1.1-2.5,1.1h-0.9v3.7h-2V377H58.2z M56.3,377h2H56.3z M58.2,379v3.2h0.9c0.4,0,0.8-0.2,1.1-0.5s0.5-0.7,0.5-1.1
			s-0.2-0.8-0.5-1.1c-0.3-0.3-0.7-0.5-1.1-0.5C59.1,379,58.2,379,58.2,379z"/>
		<path id="XMLID_6_" class="st0" d="M69.9,387.9h-2.3l-2.2-3.7h-0.3v3.7h-2V377h2l0,0H66c1,0,1.9,0.4,2.5,1
			c0.7,0.7,1.1,1.5,1.1,2.5s-0.4,1.9-1.1,2.5c-0.3,0.3-0.7,0.6-1.1,0.7L69.9,387.9z M65.1,382.2H66c0.4,0,0.8-0.2,1.1-0.5
			c0.3-0.3,0.5-0.7,0.5-1.1s-0.2-0.8-0.5-1.1c-0.3-0.3-0.7-0.5-1.1-0.5h-0.9V382.2z"/>
		<path id="XMLID_13_" class="st0" d="M80,378.4c1.1,1.1,1.7,2.4,1.7,4c0,1.6-0.6,3-1.7,4c-1.1,1.1-2.4,1.7-4,1.7s-3-0.6-4-1.7
			c-1.1-1.1-1.7-2.4-1.7-4c0-1.6,0.6-3,1.7-4c1.1-1.1,2.4-1.7,4-1.7S79,377.3,80,378.4z M76,378.7c-1,0-1.9,0.4-2.6,1.1
			c-0.7,0.7-1.1,1.6-1.1,2.6c0,1.1,0.4,2,1.1,2.7c0.7,0.7,1.6,1.1,2.6,1.1c1.1,0,2-0.4,2.7-1.1c0.7-0.7,1.1-1.6,1.1-2.7
			c0-1-0.4-2-1.1-2.6C78,379.1,77,378.7,76,378.7z"/>
		<path id="XMLID_20_" class="st0" d="M82.8,377.1l3,6.2l3-6.2H91l-4.3,8.9l-0.9,1.9l-0.9-1.9l-4.3-8.9H82.8z M80.6,377.1h2.2H80.6z
			"/>
		<path id="XMLID_23_" class="st0" d="M94,385.4h-3.8l-1.2,2.5h-2.2l4.3-9L92,377l0.9,1.8l4.4,9h-2.2L94,385.4z M91.1,383.6h2
			l-1-2.1L91.1,383.6z M92.1,381.5l-1,2.1L92.1,381.5z"/>
		<path id="XMLID_27_" class="st0" d="M102.6,379.7c-0.1-0.2-0.3-0.4-0.6-0.5c-0.3-0.1-0.6-0.2-0.9-0.2s-0.5,0.2-0.6,0.3
			c-0.2,0.2-0.3,0.4-0.3,0.6c0,0.2,0,0.3,0.1,0.5c0.1,0.1,0.2,0.3,0.3,0.4c0.1,0.1,0.3,0.2,0.4,0.2c0.2,0.1,0.4,0.1,0.6,0.2
			c0.3,0.1,0.5,0.1,0.8,0.3c0.3,0.1,0.6,0.3,0.9,0.5c0.4,0.3,0.8,0.8,1,1.2c0.2,0.5,0.3,1,0.3,1.5c-0.1,0.8-0.4,1.4-0.9,2
			c-0.5,0.5-1.1,0.9-1.9,1c-0.7,0.1-1.4,0-2.1-0.3c-0.6-0.3-1.2-0.8-1.5-1.4c-0.1-0.2-0.2-0.4-0.3-0.6c-0.1-0.2-0.1-0.4-0.1-0.6
			l1.9-0.3c0,0.1,0.1,0.2,0.1,0.3c0,0.1,0,0.2,0.1,0.3c0.2,0.3,0.4,0.5,0.7,0.6c0.3,0.2,0.7,0.2,1,0.2c0.3-0.1,0.5-0.2,0.8-0.4
			c0.2-0.2,0.3-0.4,0.3-0.8c0-0.2,0-0.4-0.1-0.6c-0.1-0.2-0.2-0.4-0.4-0.5c-0.1-0.1-0.3-0.2-0.4-0.3c-0.2-0.1-0.4-0.1-0.6-0.2
			c-0.3-0.1-0.6-0.2-0.8-0.3c-0.3-0.1-0.6-0.3-0.9-0.5c-0.4-0.3-0.7-0.7-0.9-1.2c-0.2-0.5-0.3-1-0.3-1.4c0.1-0.7,0.4-1.3,0.8-1.8
			c0.5-0.5,1.1-0.8,1.8-0.9c0.7-0.1,1.4,0,2,0.3s1.1,0.7,1.4,1.4L102.6,379.7z M102.6,379.7l1.7-0.9L102.6,379.7z"/>
		<path id="XMLID_30_" class="st0" d="M111.4,381.5h2.9v2h-2.9v2.4h3.9v2h-5.9V377h5.9v2h-3.9V381.5z M111.4,379v2.5V379z"/>
		<path id="XMLID_33_" class="st0" d="M125.1,379.7c-0.1-0.2-0.3-0.4-0.6-0.5c-0.3-0.1-0.6-0.2-0.9-0.2s-0.5,0.2-0.6,0.3
			c-0.1,0.1-0.3,0.4-0.3,0.6c0,0.2,0,0.3,0.1,0.5c0.1,0.1,0.2,0.3,0.3,0.4c0.1,0.1,0.3,0.2,0.4,0.2c0.2,0.1,0.4,0.1,0.6,0.2
			c0.3,0.1,0.5,0.1,0.8,0.3c0.3,0.1,0.6,0.3,0.9,0.5c0.4,0.3,0.8,0.8,1,1.2c0.2,0.5,0.3,1,0.3,1.5c-0.1,0.8-0.4,1.4-0.9,2
			c-0.5,0.5-1.1,0.9-1.9,1c-0.7,0.1-1.4,0-2.1-0.3c-0.6-0.3-1.2-0.8-1.5-1.4c-0.1-0.2-0.2-0.4-0.3-0.6c-0.1-0.2-0.1-0.4-0.1-0.6
			l1.9-0.3c0,0.1,0.1,0.2,0.1,0.3c0,0.1,0,0.2,0.1,0.3c0.2,0.3,0.4,0.5,0.7,0.6c0.3,0.2,0.7,0.2,1,0.2c0.3-0.1,0.5-0.2,0.8-0.4
			c0.2-0.2,0.3-0.4,0.3-0.8c0-0.2,0-0.4-0.1-0.6c-0.1-0.2-0.2-0.4-0.4-0.5c-0.1-0.1-0.3-0.2-0.4-0.3c-0.2-0.1-0.4-0.1-0.6-0.2
			c-0.3-0.1-0.6-0.2-0.8-0.3c-0.3-0.1-0.6-0.3-0.9-0.5c-0.4-0.3-0.7-0.7-0.9-1.2c-0.2-0.5-0.3-1-0.3-1.4c0.1-0.7,0.4-1.3,0.8-1.8
			c0.5-0.5,1.1-0.8,1.8-0.9c0.7-0.1,1.4,0,2,0.3s1.1,0.7,1.4,1.4L125.1,379.7z M125.1,379.7l1.7-0.9L125.1,379.7z"/>
		<path id="XMLID_36_" class="st0" d="M129.7,377v10.8h-2V377H129.7z M127.7,377h2H127.7z"/>
		<path id="XMLID_39_" class="st0" d="M130.3,387.9l3.1-8.6l0.8-2.2l1,2.1l2.3,4.8l2.3-4.8l1-2.1l0.8,2.2l3.1,8.6h-2.1l-2.1-5.8
			l-3,5.8l-3-5.8l-2,5.8H130.3z M130.3,387.9h2.1H130.3z"/>
		<path id="XMLID_42_" class="st0" d="M147.2,377v4v1.8v0.5c0,0.6,0,1.2,0.2,1.7c0.2,0.3,0.4,0.6,0.7,0.8c0.3,0.2,0.6,0.3,1,0.3
			c0.3,0,0.6-0.1,0.9-0.3c0.3-0.2,0.5-0.4,0.7-0.7c0.3-0.5,0.3-1.1,0.3-1.7v-0.2V381v-4h2v4v2.2v0.2c0,0.9,0,1.8-0.5,2.7
			c-0.4,0.6-0.8,1.1-1.4,1.4c-0.6,0.3-1.2,0.5-1.9,0.5c-0.8,0-1.4-0.2-2-0.6c-0.6-0.4-1.1-0.9-1.4-1.6c-0.4-0.9-0.4-1.7-0.4-2.5
			c0-0.2,0-0.3,0-0.4v-1.8v-4h1.8V377z M147.2,377h-2H147.2z"/>
		<path id="XMLID_45_" class="st0" d="M155.4,377v8.8h3.6v2h-3.6l0,0h-2V377H155.4z M155.4,377h-2H155.4z"/>
		<path id="XMLID_48_" class="st0" d="M166.7,385.4h-3.8l-1.2,2.5h-2.2l4.3-9l0.9-1.9l0.9,1.8l4.4,9h-2.2L166.7,385.4z M163.8,383.6
			h2l-1-2.1L163.8,383.6z M164.8,381.5l-1,2.1L164.8,381.5z"/>
		<path id="XMLID_52_" class="st0" d="M169.9,377L169.9,377h1.3c1.5,0,2.8,0.6,3.8,1.6s1.6,2.3,1.6,3.8c0,1.5-0.6,2.8-1.6,3.8
			s-2.3,1.6-3.8,1.6h-1.8H168V377H169.9z M167.9,377h2H167.9z M169.9,379v6.9h1.3c0.9,0,1.8-0.4,2.4-1c0.6-0.6,1-1.5,1-2.4
			c0-0.9-0.4-1.8-1-2.4s-1.5-1-2.4-1h-1.3V379z"/>
		<path id="XMLID_56_" class="st0" d="M187.2,378.4c1.1,1.1,1.7,2.4,1.7,4c0,1.6-0.6,3-1.7,4c-1.1,1.1-2.4,1.7-4,1.7s-3-0.6-4-1.7
			c-1.1-1.1-1.7-2.4-1.7-4c0-1.6,0.6-3,1.7-4c1.1-1.1,2.4-1.7,4-1.7S186.1,377.3,187.2,378.4z M183.2,378.7c-1,0-1.9,0.4-2.6,1.1
			c-0.7,0.7-1.1,1.6-1.1,2.6c0,1.1,0.4,2,1.1,2.7c0.7,0.7,1.6,1.1,2.6,1.1c1.1,0,2-0.4,2.7-1.1c0.7-0.7,1.1-1.6,1.1-2.7
			c0-1-0.4-2-1.1-2.6C185.1,379.1,184.2,378.7,183.2,378.7z"/>
		<path id="XMLID_59_" class="st0" d="M194.3,379.7c-0.1-0.2-0.3-0.4-0.6-0.5c-0.3-0.1-0.6-0.2-0.9-0.2c-0.3,0-0.5,0.2-0.6,0.3
			c-0.1,0.1-0.3,0.4-0.3,0.6c0,0.2,0,0.3,0.1,0.5c0.1,0.1,0.2,0.3,0.3,0.4c0.1,0.1,0.3,0.2,0.4,0.2c0.2,0.1,0.4,0.1,0.6,0.2
			c0.3,0.1,0.5,0.1,0.8,0.3c0.3,0.1,0.6,0.3,0.9,0.5c0.4,0.3,0.8,0.8,1,1.2c0.2,0.5,0.3,1,0.3,1.5c-0.1,0.8-0.4,1.4-0.9,2
			c-0.5,0.5-1.1,0.9-1.9,1c-0.7,0.1-1.4,0-2.1-0.3c-0.6-0.3-1.2-0.8-1.5-1.4c-0.1-0.2-0.2-0.4-0.3-0.6c-0.1-0.2-0.1-0.4-0.1-0.6
			l1.9-0.3c0,0.1,0.1,0.2,0.1,0.3c0,0.1,0,0.2,0.1,0.3c0.2,0.3,0.4,0.5,0.7,0.6c0.3,0.2,0.7,0.2,1,0.2c0.3-0.1,0.5-0.2,0.8-0.4
			c0.2-0.2,0.3-0.4,0.3-0.8c0-0.2,0-0.4-0.1-0.6c-0.1-0.2-0.2-0.4-0.4-0.5c-0.1-0.1-0.3-0.2-0.4-0.3c-0.2-0.1-0.4-0.1-0.6-0.2
			c-0.3-0.1-0.6-0.2-0.8-0.3c-0.3-0.1-0.6-0.3-0.9-0.5c-0.4-0.3-0.7-0.7-0.9-1.2s-0.3-1-0.3-1.4c0.1-0.7,0.4-1.3,0.8-1.8
			c0.5-0.5,1.1-0.8,1.8-0.9s1.4,0,2,0.3s1.1,0.7,1.4,1.4L194.3,379.7z M194.3,379.7l1.7-0.9L194.3,379.7z"/>
	</g>
</g>
</svg>
