<?xml version="1.0" encoding="utf-8"?>
<!-- Generator: Adobe Illustrator 22.0.1, SVG Export Plug-In . SVG Version: 6.00 Build 0)  -->
<svg version="1.1" id="Camada_1" xmlns="http://www.w3.org/2000/svg" xmlns:xlink="http://www.w3.org/1999/xlink" x="0px" y="0px"
	 width="603px" height="237px" viewBox="0 0 603 237" style="enable-background:new 0 0 603 237;" xml:space="preserve">
<style type="text/css">
	.st0{fill:#FFFFFF;}
	.st1{fill:none;stroke:#FFFFFF;stroke-width:3;}
</style>
<g>
	<g>
		<path class="st0" d="M152.8,89.4c-13,0-20.4,12.7-20.4,28.3c0,15.8,7.6,28.1,20.2,28.1h0.1c12.8,0,20.1-12,20.1-28.4
			C172.9,102.3,165.8,89.4,152.8,89.4z"/>
		<path class="st0" d="M117.6,9.6C57.5,9.6,8.8,58.3,8.8,118.4s48.7,108.8,108.8,108.8s108.8-48.7,108.8-108.8
			C226.4,58.3,177.6,9.6,117.6,9.6z M88.8,144.9c5.8,0,12.1-1.1,15.9-2.7l2.7,14.9c-3.4,1.6-11.3,3.6-21.4,3.6
			c-28.9,0-43.8-18.1-43.8-42c0-28.4,20.4-44.2,45.7-44.2c9.8,0,17.3,2,20.6,3.6l-4,15c-3.7-1.6-9.1-3.1-15.9-3.1
			C73.7,90,62,99.1,62,117.7C62.1,134.3,72,144.9,88.8,144.9z M151.9,160.8h-0.1c-24.7,0-39.4-18.8-39.4-42.6
			c0-25.1,16.1-43.8,40.7-43.8c25.7,0,39.7,19.3,39.7,42.4C192.9,144.3,176.4,160.8,151.9,160.8z"/>
	</g>
	<g>
		<path class="st0" d="M293.1,100.4c-1.8,0.9-5.9,1.9-11.3,1.9c-15.2,0-23-9.4-23-21.9c0-14.9,10.7-23.2,24-23.2
			c5.1,0,9.1,1,10.8,1.9l-2,7.8c-2-0.8-4.8-1.6-8.3-1.6c-7.9,0-14,4.7-14,14.5c0,8.8,5.2,14.3,14.1,14.3c3,0,6.3-0.6,8.3-1.4
			L293.1,100.4z"/>
		<path class="st0" d="M337.8,79.3c0,14.3-8.7,23-21.6,23c-13,0-20.7-9.8-20.7-22.2c0-13.1,8.4-22.9,21.4-22.9
			C330.5,57.2,337.8,67.3,337.8,79.3z M306.1,79.9c0,8.6,4,14.6,10.7,14.6s10.6-6.4,10.6-14.9c0-7.8-3.8-14.6-10.6-14.6
			C310,65.1,306.1,71.4,306.1,79.9z"/>
		<path class="st0" d="M344.4,101.6V57.9H356l9.1,16c2.6,4.6,5.2,10.1,7.2,15h0.2c-0.7-5.8-0.8-11.7-0.8-18.2V57.9h9.1v43.7h-10.4
			L361,84.7c-2.6-4.7-5.5-10.3-7.6-15.4l-0.2,0.1c0.3,5.8,0.4,11.9,0.4,19.1v13.2L344.4,101.6L344.4,101.6z"/>
		<path class="st0" d="M397.8,66.2H386v-8.3h33.8v8.3h-12v35.4h-10V66.2z"/>
		<path class="st0" d="M451.2,83.2H435v10.4h18v8.1h-28V57.9h27.1V66H435v9.1h16.2V83.2z"/>
		<path class="st0" d="M469.7,57.9v25.2c0,7.5,2.9,11.3,7.9,11.3c5.2,0,8.1-3.6,8.1-11.3V57.9h9.9v24.5c0,13.5-6.8,19.9-18.3,19.9
			c-11.1,0-17.6-6.1-17.6-20V57.9H469.7z M488.6,47.6l-7.9,8h-7.9l5.5-8H488.6z"/>
		<path class="st0" d="M504.3,58.5c3.6-0.6,8.4-0.9,13.4-0.9c8.3,0,13.7,1.5,18,4.7c4.6,3.4,7.4,8.8,7.4,16.5
			c0,8.4-3.1,14.1-7.3,17.7c-4.6,3.8-11.7,5.6-20.3,5.6c-5.1,0-8.8-0.3-11.3-0.6L504.3,58.5L504.3,58.5z M514.2,94.2
			c0.8,0.2,2.2,0.2,3.5,0.2c9,0.1,14.9-4.9,14.9-15.3c0.1-9.1-5.3-13.9-13.8-13.9c-2.2,0-3.6,0.2-4.5,0.4v28.6
			C514.3,94.2,514.2,94.2,514.2,94.2z"/>
		<path class="st0" d="M589.8,79.3c0,14.3-8.7,23-21.6,23c-13,0-20.7-9.8-20.7-22.2c0-13.1,8.4-22.9,21.4-22.9
			C582.5,57.2,589.8,67.3,589.8,79.3z M558.1,79.9c0,8.6,4,14.6,10.7,14.6s10.6-6.4,10.6-14.9c0-7.8-3.8-14.6-10.6-14.6
			C562,65.1,558.1,71.4,558.1,79.9z"/>
	</g>
	<line class="st1" x1="246.6" y1="118.4" x2="594.2" y2="118.4"/>
	<polygon class="st0" points="223.4,94.9 248.8,118.4 223.4,141.8 	"/>
</g>
<g>
	<path class="st0" d="M429,154.9c0,7.4-2.7,15-7.5,19.9c-3.8,3.7-8.8,5.9-14.9,5.9c-10.7,0-16.3-7.8-16.3-17.1
		c0-7.4,2.8-15.2,7.8-20c3.8-3.6,9-5.8,14.6-5.8C423.8,137.7,429,145.4,429,154.9z M403.6,147.3c-3.6,3.6-5.7,10.4-5.7,15.8
		c0,6.3,2.8,11.5,9.8,11.5c3,0,5.9-1.3,8.1-3.5c3.6-3.6,5.6-10.7,5.6-15.9c0-5.5-1.9-11.4-9.6-11.4
		C408.6,143.7,405.8,145.1,403.6,147.3z"/>
	<path class="st0" d="M431.3,179.9l3.9-20.7c0.7-3.6,1.2-6.7,1.5-9.3h6.4l-0.6,5.4h0.1c2.8-4.1,6.6-6.1,10.8-6.1
		c4.3,0,7.6,2.6,7.6,8.3c0,1.4-0.2,3.5-0.6,5l-3.3,17.5H450l3.2-17c0.2-1.1,0.4-2.4,0.4-3.6c0-2.5-0.9-4.3-3.8-4.3
		c-3.3,0-7.5,3.9-8.8,11l-2.6,13.9H431.3z"/>
	<path class="st0" d="M482.2,160.9l-1,5.2h-15.5l1-5.2H482.2z"/>
	<path class="st0" d="M492.8,138.4h7.2l-6.7,35.3h16.3l-1.2,6.3h-23.6L492.8,138.4z"/>
	<path class="st0" d="M513.4,179.9l5.7-30h7.2l-5.7,30H513.4z M520.3,141.8c0-2.6,2-4.4,4.3-4.4c2.2,0,3.8,1.6,3.8,3.9
		c-0.1,2.7-2,4.3-4.4,4.3C521.7,145.6,520.2,144,520.3,141.8z"/>
	<path class="st0" d="M528.8,179.9l3.9-20.7c0.7-3.6,1.2-6.7,1.5-9.3h6.4l-0.6,5.4h0.1c2.8-4.1,6.6-6.1,10.8-6.1
		c4.3,0,7.6,2.6,7.6,8.3c0,1.4-0.2,3.5-0.6,5l-3.3,17.5h-7.2l3.2-17c0.2-1.1,0.4-2.4,0.4-3.6c0-2.5-0.9-4.3-3.8-4.3
		c-3.3,0-7.5,3.9-8.8,11l-2.6,13.9H528.8z"/>
	<path class="st0" d="M586.2,178.2c-3,1.5-7,2.3-10.6,2.3c-8.3,0-12.3-5.1-12.3-12.4c0-9.1,6.7-18.9,17-18.9c5.9,0,9.7,3.5,9.7,8.4
		c0,7.7-8.1,10.2-19.7,9.9c-0.1,1,0.1,3.1,0.8,4.3c1.2,2,3.3,3.1,6.2,3.1c3.4,0,6.1-0.9,8.3-2L586.2,178.2z M579.4,154.6
		c-4.5,0-7.5,4-8.3,7.6c7.4,0.1,12.1-0.9,12.1-4.5C583.2,155.7,581.7,154.6,579.4,154.6z"/>
</g>
</svg>
