<?xml version="1.0" encoding="utf-8"?>
<!-- Generator: Adobe Illustrator 19.0.0, SVG Export Plug-In . SVG Version: 6.00 Build 0)  -->
<svg version="1.1" id="Camada_1" xmlns="http://www.w3.org/2000/svg" xmlns:xlink="http://www.w3.org/1999/xlink" x="0px" y="0px"
	 viewBox="0 0 250 80" style="enable-background:new 0 0 250 80;" xml:space="preserve">
<style type="text/css">
	.st0{fill-rule:evenodd;clip-rule:evenodd;fill:#C74F43;}
	.st1{fill-rule:evenodd;clip-rule:evenodd;fill:#AB453F;}
	.st2{fill:#FFFFFF;}
	.st3{fill:#E5E5E4;}
	.st4{fill:#2A3C4C;}
</style>
<g id="XMLID_3761_">
	<g id="XMLID_8737_">
		<polygon id="XMLID_8747_" class="st0" points="234.5,61 205.4,61 214.3,52.3 214.3,22.8 234.5,22.8 223.6,40.8 		"/>
		<rect id="XMLID_8744_" x="38.9" y="6.7" class="st0" width="172.1" height="44.8"/>
		<rect id="XMLID_8741_" x="38.9" y="6.7" class="st1" width="87" height="44.8"/>
		<polygon id="XMLID_8738_" class="st1" points="15.5,61 26.4,40.8 15.5,22.8 35.7,22.8 35.7,52.3 44.6,61 		"/>
	</g>
	<g id="XMLID_8720_">
		<g id="XMLID_8721_">
			<path id="XMLID_8736_" class="st2" d="M102.1,32.4c0,0.6-0.2,1.2-1.1,2c-0.8,0.6-2.4,0.8-2.4,0.8l0,5.9c0,0,2.6,0.6,6.6-2
				c3.4-2.3,3.6-6.5,3.6-6.5l0-15.7l-6.8,0C102.1,16.9,102.1,31.8,102.1,32.4z"/>
			<polygon id="XMLID_8735_" class="st2" points="110.5,41 123.7,40.9 123.7,35.2 116.9,35.2 116.9,31.5 123.2,31.5 123.1,25.8 
				117,25.8 117,22.6 123.9,22.6 123.9,16.9 110.4,16.9 			"/>
			
				<rect id="XMLID_8734_" x="142.4" y="16.8" transform="matrix(-1 2.569708e-003 -2.569708e-003 -1 291.1285 57.2329)" class="st2" width="6.2" height="24"/>
			<path id="XMLID_8731_" class="st2" d="M65.6,16.9c-6.9,0-12.5,5.6-12.4,12.5c0,6.9,5.6,12.5,12.5,12.4c6.9,0,12.5-5.6,12.4-12.5
				C78.1,22.5,72.5,16.9,65.6,16.9z M65.7,36c-3.6,0-6.5-2.9-6.5-6.5c0-3.6,2.9-6.5,6.5-6.5c3.6,0,6.5,2.9,6.5,6.5
				C72.3,33.1,69.3,36,65.7,36z"/>
			<path id="XMLID_8728_" class="st2" d="M184.4,16.6c-6.9,0-12.5,5.6-12.4,12.5c0,6.9,5.6,12.5,12.5,12.4c6.9,0,12.5-5.6,12.4-12.5
				C196.9,22.2,191.3,16.6,184.4,16.6z M184.5,35.7c-3.6,0-6.5-2.9-6.5-6.5c0-3.6,2.9-6.5,6.5-6.5c3.6,0,6.5,2.9,6.5,6.5
				C191,32.8,188.1,35.7,184.5,35.7z"/>
			<polygon id="XMLID_8727_" class="st2" points="167.6,16.7 162.2,29.8 156.7,16.7 149.9,16.8 159.9,40.8 164.6,40.8 174.5,16.7 
							"/>
			<path id="XMLID_8723_" class="st2" d="M92.9,28.3c0,0,3.2-1.3,3.2-4.8c0-6.1-7-6.6-7-6.6l-8.9,0l0.1,24l10,0c0,0,7.3-1,7.3-6.5
				C97.5,30.2,92.9,28.3,92.9,28.3z M86.3,22.4l2.5,0c0,0,1.6,0.1,1.6,1.9c0,1.6-1.7,1.8-1.7,1.8l-2.3,0L86.3,22.4z M89.4,35.5
				l-3.1,0l0-3.7l3.7,0c0,0,1.3,0.1,1.3,2C91.3,35.4,89.4,35.5,89.4,35.5z"/>
			<polygon id="XMLID_8722_" class="st2" points="125.3,22.6 130.2,22.6 130.2,40.9 136.4,40.8 136.4,22.6 141.3,22.5 141.3,16.8 
				125.3,16.9 			"/>
		</g>
	</g>
	<g id="XMLID_3765_">
		<g id="XMLID_3767_">
			<path id="XMLID_8719_" class="st3" d="M102.1,32.4c0,0.6-0.2,1.2-1.1,2c-0.8,0.6-2.4,0.8-2.4,0.8l0,5.9c0,0,2.6,0.6,6.6-2
				c3.4-2.3,3.6-6.5,3.6-6.5l0-15.7l-6.8,0C102.1,16.9,102.1,31.8,102.1,32.4z"/>
			<polygon id="XMLID_8718_" class="st3" points="110.5,41 123.7,40.9 123.7,35.2 116.9,35.2 116.9,31.5 123.2,31.5 123.1,25.8 
				117,25.8 117,22.6 123.9,22.6 123.9,16.9 110.4,16.9 			"/>
			<path id="XMLID_8715_" class="st3" d="M65.6,16.9c-6.9,0-12.5,5.6-12.4,12.5c0,6.9,5.6,12.5,12.5,12.4c6.9,0,12.5-5.6,12.4-12.5
				C78.1,22.5,72.5,16.9,65.6,16.9z M65.7,36c-3.6,0-6.5-2.9-6.5-6.5c0-3.6,2.9-6.5,6.5-6.5c3.6,0,6.5,2.9,6.5,6.5
				C72.3,33.1,69.3,36,65.7,36z"/>
			<path id="XMLID_3770_" class="st3" d="M92.9,28.3c0,0,3.2-1.3,3.2-4.8c0-6.1-7-6.6-7-6.6l-8.9,0l0.1,24l10,0c0,0,7.3-1,7.3-6.5
				C97.5,30.2,92.9,28.3,92.9,28.3z M86.3,22.4l2.5,0c0,0,1.6,0.1,1.6,1.9c0,1.6-1.7,1.8-1.7,1.8l-2.3,0L86.3,22.4z M89.4,35.5
				l-3.1,0l0-3.7l3.7,0c0,0,1.3,0.1,1.3,2C91.3,35.4,89.4,35.5,89.4,35.5z"/>
			<polygon id="XMLID_3768_" class="st3" points="125.3,16.9 125.3,16.9 125.3,21.7 			"/>
		</g>
	</g>
	<g id="XMLID_1_">
		<path id="XMLID_2_" class="st4" d="M57.5,58.4L57.5,58.4l0.9,0c1,0,1.9,0.4,2.5,1C61.6,60.2,62,61,62,62s-0.4,1.8-1.1,2.5
			c-0.7,0.7-1.5,1.1-2.5,1.1h-0.9v3.7h-2V58.4H57.5z M55.6,58.4h2H55.6z M57.5,60.4v3.2h0.9c0.4,0,0.8-0.2,1.1-0.5
			c0.3-0.3,0.5-0.7,0.5-1.1c0-0.4-0.2-0.8-0.5-1.1c-0.3-0.3-0.7-0.5-1.1-0.5H57.5z"/>
		<path id="XMLID_6_" class="st4" d="M69.2,69.3h-2.3l-2.2-3.7h-0.3v3.7h-2V58.4h2v0h0.9c1,0,1.9,0.4,2.5,1c0.7,0.7,1.1,1.5,1.1,2.5
			s-0.4,1.9-1.1,2.5c-0.3,0.3-0.7,0.6-1.1,0.7L69.2,69.3z M64.4,63.6h0.9c0.4,0,0.8-0.2,1.1-0.5c0.3-0.3,0.5-0.7,0.5-1.1
			c0-0.4-0.2-0.8-0.5-1.1c-0.3-0.3-0.7-0.5-1.1-0.5h-0.9V63.6z"/>
		<path id="XMLID_13_" class="st4" d="M79.3,59.8c1.1,1.1,1.7,2.4,1.7,4c0,1.6-0.6,3-1.7,4c-1.1,1.1-2.4,1.7-4,1.7s-3-0.6-4-1.7
			c-1.1-1.1-1.7-2.4-1.7-4c0-1.6,0.6-3,1.7-4c1.1-1.1,2.4-1.7,4-1.7S78.3,58.7,79.3,59.8z M75.3,60.1c-1,0-1.9,0.4-2.6,1.1
			c-0.7,0.7-1.1,1.6-1.1,2.6c0,1.1,0.4,2,1.1,2.7c0.7,0.7,1.6,1.1,2.6,1.1c1.1,0,2-0.4,2.7-1.1c0.7-0.7,1.1-1.6,1.1-2.7
			c0-1-0.4-2-1.1-2.6C77.3,60.5,76.3,60.1,75.3,60.1z"/>
		<path id="XMLID_20_" class="st4" d="M82.1,58.5l3,6.2l3-6.2h2.2L86,67.4l-0.9,1.9l-0.9-1.9l-4.3-8.9H82.1z M79.9,58.5h2.2H79.9z"
			/>
		<path id="XMLID_23_" class="st4" d="M93.3,66.8h-3.8l-1.2,2.5h-2.2l4.3-9l0.9-1.9l0.9,1.8l4.4,9h-2.2L93.3,66.8z M90.4,65h2
			l-1-2.1L90.4,65z M91.4,62.9l-1,2.1L91.4,62.9z"/>
		<path id="XMLID_27_" class="st4" d="M101.9,61.1c-0.1-0.2-0.3-0.4-0.6-0.5c-0.3-0.1-0.6-0.2-0.9-0.2c-0.3,0-0.5,0.2-0.6,0.3
			c-0.2,0.2-0.3,0.4-0.3,0.6c0,0.2,0,0.3,0.1,0.5c0.1,0.1,0.2,0.3,0.3,0.4c0.1,0.1,0.3,0.2,0.4,0.2c0.2,0.1,0.4,0.1,0.6,0.2
			c0.3,0.1,0.5,0.1,0.8,0.3c0.3,0.1,0.6,0.3,0.9,0.5c0.4,0.3,0.8,0.8,1,1.2c0.2,0.5,0.3,1,0.3,1.5c-0.1,0.8-0.4,1.4-0.9,2
			c-0.5,0.5-1.1,0.9-1.9,1c-0.7,0.1-1.4,0-2.1-0.3c-0.6-0.3-1.2-0.8-1.5-1.4c-0.1-0.2-0.2-0.4-0.3-0.6c-0.1-0.2-0.1-0.4-0.1-0.6
			l1.9-0.3c0,0.1,0.1,0.2,0.1,0.3c0,0.1,0,0.2,0.1,0.3c0.2,0.3,0.4,0.5,0.7,0.6c0.3,0.2,0.7,0.2,1,0.2c0.3-0.1,0.5-0.2,0.8-0.4
			c0.2-0.2,0.3-0.4,0.3-0.8c0-0.2,0-0.4-0.1-0.6s-0.2-0.4-0.4-0.5c-0.1-0.1-0.3-0.2-0.4-0.3c-0.2-0.1-0.4-0.1-0.6-0.2
			c-0.3-0.1-0.6-0.2-0.8-0.3c-0.3-0.1-0.6-0.3-0.9-0.5c-0.4-0.3-0.7-0.7-0.9-1.2c-0.2-0.5-0.3-1-0.3-1.4c0.1-0.7,0.4-1.3,0.8-1.8
			c0.5-0.5,1.1-0.8,1.8-0.9c0.7-0.1,1.4,0,2,0.3c0.6,0.3,1.1,0.7,1.4,1.4L101.9,61.1z M101.9,61.1l1.7-0.9L101.9,61.1z"/>
		<path id="XMLID_30_" class="st4" d="M110.7,62.9h2.9v2h-2.9v2.4h3.9v2h-5.9V58.4h5.9v2h-3.9V62.9z M110.7,60.4v2.5V60.4z"/>
		<path id="XMLID_33_" class="st4" d="M124.4,61.1c-0.1-0.2-0.3-0.4-0.6-0.5c-0.3-0.1-0.6-0.2-0.9-0.2c-0.3,0-0.5,0.2-0.6,0.3
			s-0.3,0.4-0.3,0.6c0,0.2,0,0.3,0.1,0.5c0.1,0.1,0.2,0.3,0.3,0.4c0.1,0.1,0.3,0.2,0.4,0.2c0.2,0.1,0.4,0.1,0.6,0.2
			c0.3,0.1,0.5,0.1,0.8,0.3c0.3,0.1,0.6,0.3,0.9,0.5c0.4,0.3,0.8,0.8,1,1.2c0.2,0.5,0.3,1,0.3,1.5c-0.1,0.8-0.4,1.4-0.9,2
			c-0.5,0.5-1.1,0.9-1.9,1c-0.7,0.1-1.4,0-2.1-0.3c-0.6-0.3-1.2-0.8-1.5-1.4c-0.1-0.2-0.2-0.4-0.3-0.6c-0.1-0.2-0.1-0.4-0.1-0.6
			l1.9-0.3c0,0.1,0.1,0.2,0.1,0.3c0,0.1,0,0.2,0.1,0.3c0.2,0.3,0.4,0.5,0.7,0.6c0.3,0.2,0.7,0.2,1,0.2c0.3-0.1,0.5-0.2,0.8-0.4
			c0.2-0.2,0.3-0.4,0.3-0.8c0-0.2,0-0.4-0.1-0.6c-0.1-0.2-0.2-0.4-0.4-0.5c-0.1-0.1-0.3-0.2-0.4-0.3c-0.2-0.1-0.4-0.1-0.6-0.2
			c-0.3-0.1-0.6-0.2-0.8-0.3c-0.3-0.1-0.6-0.3-0.9-0.5c-0.4-0.3-0.7-0.7-0.9-1.2c-0.2-0.5-0.3-1-0.3-1.4c0.1-0.7,0.4-1.3,0.8-1.8
			c0.5-0.5,1.1-0.8,1.8-0.9c0.7-0.1,1.4,0,2,0.3c0.6,0.3,1.1,0.7,1.4,1.4L124.4,61.1z M124.4,61.1l1.7-0.9L124.4,61.1z"/>
		<path id="XMLID_36_" class="st4" d="M129,58.4v10.8h-2V58.4H129z M127,58.4h2H127z"/>
		<path id="XMLID_39_" class="st4" d="M129.6,69.3l3.1-8.6l0.8-2.2l1,2.1l2.3,4.8l2.3-4.8l1-2.1l0.8,2.2l3.1,8.6h-2.1l-2.1-5.8
			l-3,5.8l-3-5.8l-2,5.8H129.6z M129.6,69.3h2.1H129.6z"/>
		<path id="XMLID_42_" class="st4" d="M146.5,58.4v4v1.8v0.5c0,0.6,0,1.2,0.2,1.7c0.2,0.3,0.4,0.6,0.7,0.8c0.3,0.2,0.6,0.3,1,0.3
			c0.3,0,0.6-0.1,0.9-0.3c0.3-0.2,0.5-0.4,0.7-0.7c0.3-0.5,0.3-1.1,0.3-1.7v-0.2v-2.2v-4h2v4v2.2v0.2c0,0.9,0,1.8-0.5,2.7
			c-0.4,0.6-0.8,1.1-1.4,1.4c-0.6,0.3-1.2,0.5-1.9,0.5c-0.8,0-1.4-0.2-2-0.6c-0.6-0.4-1.1-0.9-1.4-1.6c-0.4-0.9-0.4-1.7-0.4-2.5
			c0-0.2,0-0.3,0-0.4v-1.8v-4H146.5z M146.5,58.4h-2H146.5z"/>
		<path id="XMLID_45_" class="st4" d="M154.7,58.4v8.8h3.6v2h-3.6v0h-2V58.4H154.7z M154.7,58.4h-2H154.7z"/>
		<path id="XMLID_48_" class="st4" d="M166,66.8h-3.8l-1.2,2.5h-2.2l4.3-9l0.9-1.9l0.9,1.8l4.4,9h-2.2L166,66.8z M163.1,65h2l-1-2.1
			L163.1,65z M164.1,62.9l-1,2.1L164.1,62.9z"/>
		<path id="XMLID_52_" class="st4" d="M169.2,58.4L169.2,58.4l1.3,0c1.5,0,2.8,0.6,3.8,1.6c1,1,1.6,2.3,1.6,3.8
			c0,1.5-0.6,2.8-1.6,3.8c-1,1-2.3,1.6-3.8,1.6h-1.8h-1.4V58.4H169.2z M167.2,58.4h2H167.2z M169.2,60.4v6.9h1.3
			c0.9,0,1.8-0.4,2.4-1c0.6-0.6,1-1.5,1-2.4c0-0.9-0.4-1.8-1-2.4c-0.6-0.6-1.5-1-2.4-1H169.2z"/>
		<path id="XMLID_56_" class="st4" d="M186.5,59.8c1.1,1.1,1.7,2.4,1.7,4c0,1.6-0.6,3-1.7,4c-1.1,1.1-2.4,1.7-4,1.7s-3-0.6-4-1.7
			c-1.1-1.1-1.7-2.4-1.7-4c0-1.6,0.6-3,1.7-4c1.1-1.1,2.4-1.7,4-1.7S185.4,58.7,186.5,59.8z M182.5,60.1c-1,0-1.9,0.4-2.6,1.1
			c-0.7,0.7-1.1,1.6-1.1,2.6c0,1.1,0.4,2,1.1,2.7c0.7,0.7,1.6,1.1,2.6,1.1c1.1,0,2-0.4,2.7-1.1c0.7-0.7,1.1-1.6,1.1-2.7
			c0-1-0.4-2-1.1-2.6C184.4,60.5,183.5,60.1,182.5,60.1z"/>
		<path id="XMLID_59_" class="st4" d="M193.6,61.1c-0.1-0.2-0.3-0.4-0.6-0.5c-0.3-0.1-0.6-0.2-0.9-0.2c-0.3,0-0.5,0.2-0.6,0.3
			s-0.3,0.4-0.3,0.6c0,0.2,0,0.3,0.1,0.5c0.1,0.1,0.2,0.3,0.3,0.4c0.1,0.1,0.3,0.2,0.4,0.2c0.2,0.1,0.4,0.1,0.6,0.2
			c0.3,0.1,0.5,0.1,0.8,0.3c0.3,0.1,0.6,0.3,0.9,0.5c0.4,0.3,0.8,0.8,1,1.2c0.2,0.5,0.3,1,0.3,1.5c-0.1,0.8-0.4,1.4-0.9,2
			c-0.5,0.5-1.1,0.9-1.9,1c-0.7,0.1-1.4,0-2.1-0.3c-0.6-0.3-1.2-0.8-1.5-1.4c-0.1-0.2-0.2-0.4-0.3-0.6c-0.1-0.2-0.1-0.4-0.1-0.6
			l1.9-0.3c0,0.1,0.1,0.2,0.1,0.3c0,0.1,0,0.2,0.1,0.3c0.2,0.3,0.4,0.5,0.7,0.6c0.3,0.2,0.7,0.2,1,0.2c0.3-0.1,0.5-0.2,0.8-0.4
			c0.2-0.2,0.3-0.4,0.3-0.8c0-0.2,0-0.4-0.1-0.6c-0.1-0.2-0.2-0.4-0.4-0.5c-0.1-0.1-0.3-0.2-0.4-0.3c-0.2-0.1-0.4-0.1-0.6-0.2
			c-0.3-0.1-0.6-0.2-0.8-0.3c-0.3-0.1-0.6-0.3-0.9-0.5c-0.4-0.3-0.7-0.7-0.9-1.2c-0.2-0.5-0.3-1-0.3-1.4c0.1-0.7,0.4-1.3,0.8-1.8
			c0.5-0.5,1.1-0.8,1.8-0.9c0.7-0.1,1.4,0,2,0.3c0.6,0.3,1.1,0.7,1.4,1.4L193.6,61.1z M193.6,61.1l1.7-0.9L193.6,61.1z"/>
	</g>
</g>
</svg>
